<svg xmlns="http://www.w3.org/2000/svg" viewBox="0 0 32 32" width="32" height="32">
  <path 
    d="M16 20.67A4.67 4.67 0 0 1 11.33 16A4.67 4.67 0 0 1 16 11.33A4.67 4.67 0 0 1 20.67 16A4.67 4.67 0 0 1 16 20.67m9.91-3.38c.05-.43.09-.85.09-1.29c0-.44-.04-.86-.09-1.29l2.82-2.18c.25-.2.32-.56.16-.85l-2.67-4.61c-.16-.29-.52-.4-.82-.29l-3.33 1.33c-.69-.52-1.42-.97-2.26-1.31l-.49-3.54A.674.674 0 0 0 18.67 2h-5.34c-.33 0-.61.24-.66.57l-.49 3.54c-.84.34-1.57.79-2.26 1.31l-3.33-1.33c-.3-.11-.66 0-.82.29l-2.67 4.61c-.16.29-.09.65.16.85l2.82 2.18c-.05.43-.09.85-.09 1.29c0 .44.04.86.09 1.29l-2.82 2.18c-.25.2-.32.56-.16.85l2.67 4.61c.16.29.52.4.82.29l3.33-1.33c.69.52 1.42.97 2.26 1.31l.49 3.54c.05.33.33.57.66.57h5.34c.33 0 .61-.24.66-.57l.49-3.54c.84-.34 1.57-.79 2.26-1.31l3.33 1.33c.3.11.66 0 .82-.29l2.67-4.61c.16-.29.09-.65-.16-.85l-2.82-2.18Z" 
    fill="#F59E0B"
  />
</svg>
